{"title":"The Christmas Raccoons (1980) DVDRip","uid":9372360,"size":245482140,"categoryP":"video","categoryS":"movies","magnet":"?xt=urn:btih:b2416209e567a86b6a25bdd769c8de00ce6b9c65&amp;dn=The+Christmas+Raccoons+%281980%29+DVDRip&amp;tr=udp%3A%2F%2Ftracker.openbittorrent.com%3A80&amp;tr=udp%3A%2F%2Fopen.demonii.com%3A1337&amp;tr=udp%3A%2F%2Ftracker.coppersurfer.tk%3A6969&amp;tr=udp%3A%2F%2Fexodus.desync.com%3A6969","seeders":0,"leechers":0,"uploader":"7","files":1,"time":1387555155,"description":"Genre\tAnimation, Family\nActors\tRich Little, Rita Coolidge, Rupert Holmes\nPlot\tIn this prelude to the television series, &quot;The Raccoons,&quot; Bert, Melissa and Ralph Raccoon have their home stolen when Tommy and Julie cut down their home for a Christmas tree...\n\nIMDB link\t\n &lt;a href=&quot;\nhttp://www.imdb.com/title/tt0128995/&quot; rel=&quot;nofollow&quot; target=&quot;_NEW&quot;&gt;\nhttp://www.imdb.com/title/tt0128995/&lt;/a&gt;\n\nGeneral\nComplete name                            : The Christmas Raccoons (1980).avi\nFormat                                   : AVI\nFormat/Info                              : Audio Video Interleave\nFile size                                : 234 MiB\nDuration                                 : 24mn 37s\nOverall bit rate                         : 1 329 Kbps\nWriting application                      : MEncoder dev-SVN-rUNKNOWN-4.2.0\nWriting library                          : MPlayer\n\nVideo\nID                                       : 0\nFormat                                   : MPEG-4 Visual\nFormat profile                           : Advanced Simple@L5\nFormat settings, BVOP                    : 2\nFormat settings, QPel                    : No\nFormat settings, GMC                     : No warppoints\nFormat settings, Matrix                  : Default (H.263)\nCodec ID                                 : XVID\nCodec ID/Hint                            : XviD\nDuration                                 : 24mn 37s\nBit rate                                 : 1 188 Kbps\nWidth                                    : 640 pixels\nHeight                                   : 480 pixels\nDisplay aspect ratio                     : 4:3\nFrame rate                               : 29.970 fps\nColor space                              : YUV\nChroma subsampling                       : 4:2:0\nBit depth                                : 8 bits\nScan type                                : Progressive\nCompression mode                         : Lossy\nBits/(Pixel*Frame)                       : 0.129\nStream size                              : 209 MiB (89%)\nWriting library                          : XviD 1.2.0.dev47 (UTC 2006-11-01)\n\nAudio\nID                                       : 1\nFormat                                   : MPEG Audio\nFormat version                           : Version 1\nFormat profile                           : Layer 3\nMode                                     : Joint stereo\nMode extension                           : MS Stereo\nCodec ID                                 : 55\nCodec ID/Hint                            : MP3\nDuration                                 : 24mn 36s\nBit rate mode                            : Constant\nBit rate                                 : 128 Kbps\nChannel(s)                               : 2 channels\nSampling rate                            : 48.0 KHz\nCompression mode                         : Lossy\nDelay relative to video                  : 33ms\nStream size                              : 22.5 MiB (10%)\nAlignment                                : Aligned on interleaves\nInterleave, duration                     : 24 ms (0.72 video frame)\nInterleave, preload duration             : 504 ms\nWriting library                          : LAME3.97\n &lt;a href=&quot;\nhttp://lookpic.com/O/i2/1188/UTlLi44m.jpeg&quot; rel=&quot;nofollow&quot; target=&quot;_NEW&quot;&gt;\nhttp://lookpic.com/O/i2/1188/UTlLi44m.jpeg&lt;/a&gt;","torrent":{"xt":"urn:btih:b2416209e567a86b6a25bdd769c8de00ce6b9c65","amp;dn":"The+Christmas+Raccoons+%281980%29+DVDRip","amp;tr":["udp%3A%2F%2Ftracker.openbittorrent.com%3A80","udp%3A%2F%2Fopen.demonii.com%3A1337","udp%3A%2F%2Ftracker.coppersurfer.tk%3A6969","udp%3A%2F%2Fexodus.desync.com%3A6969"],"infoHash":"b2416209e567a86b6a25bdd769c8de00ce6b9c65","infoHashBuffer":{"type":"Buffer","data":[178,65,98,9,229,103,168,107,106,37,189,215,105,200,222,0,206,107,156,101]},"announce":[],"urlList":[]}}